<?xml version="1.0" encoding="utf-8"?>
<!-- Generator: Adobe Illustrator 25.2.1, SVG Export Plug-In . SVG Version: 6.00 Build 0)  -->
<svg version="1.1" id="Layer_1" xmlns="http://www.w3.org/2000/svg" xmlns:xlink="http://www.w3.org/1999/xlink" x="0px" y="0px"
	 viewBox="0 0 60 60" style="enable-background:new 0 0 60 60;" xml:space="preserve">
<style type="text/css">
	.st0{fill:#001E50;}
</style>
<path class="st0" d="M30,0C13.43,0,0,13.43,0,30s13.43,30,30,30s30-13.43,30-30S46.57,0,30,0z M45.53,46.23
	c-0.94,2.25-2.92,7.55-2.92,7.55s-1.13,2.06-3.69,0.54c-2.56-1.52-14.76-5.86-20.63-21.39s0.38-28.05,0.38-28.05s0.94-1.48,2.5-0.96
	l7.54,2.96c0,0,2.1,0.85,1.23,2.73c0,0-1.83,5.86-1.65,8s-3.23,2.88-3.23,2.88l-4.61,1.85c0,0,0.27,5.23,2.79,10.67
	c2.52,5.44,5.5,8.57,5.5,8.57l6.15-2.61c0,0,1.29-0.84,2.48,0.38c1.98,2.04,6.63,4,6.63,4S46.47,43.98,45.53,46.23z"/>
</svg>
