<?xml version="1.0" encoding="utf-8"?>
<!-- Generator: Adobe Illustrator 25.2.1, SVG Export Plug-In . SVG Version: 6.00 Build 0)  -->
<svg version="1.1" id="Layer_1" xmlns="http://www.w3.org/2000/svg" xmlns:xlink="http://www.w3.org/1999/xlink" x="0px" y="0px"
	 viewBox="0 0 60 60" style="enable-background:new 0 0 60 60;" xml:space="preserve">
<style type="text/css">
	.st0{fill:#001E50;}
</style>
<g>
	<path class="st0" d="M30,0C13.43,0,0,13.43,0,30s13.43,30,30,30s30-13.43,30-30S46.57,0,30,0z M30,54.71
		C16.35,54.71,5.29,43.65,5.29,30S16.35,5.29,30,5.29S54.71,16.35,54.71,30S43.65,54.71,30,54.71z"/>
	<path class="st0" d="M30,10.75c-10.63,0-19.25,8.62-19.25,19.25S19.37,49.25,30,49.25S49.25,40.63,49.25,30S40.63,10.75,30,10.75z
		 M42.23,16.38l1.03,1.03l-3.49,3.47l-1.03-1.03L42.23,16.38z M29.13,11.54h1.45v4.92h-1.45V11.54z M11.7,30.55l-0.01-1.45
		l4.92-0.03l0.01,1.45L11.7,30.55z M17.49,43.03L16.47,42l3.49-3.47l1.03,1.03L17.49,43.03z M20.05,20.77l-3.45-3.51l1.04-1.02
		l3.45,3.51L20.05,20.77z M30.59,47.87h-1.45v-4.92h1.45V47.87z M30,32.07c-0.09,0-0.18-0.01-0.27-0.02l-3.23,10.59l-2.44,1.47
		l-0.68-2.82l5.23-9.77c-0.41-0.38-0.67-0.92-0.67-1.52c0-0.79,0.45-1.48,1.1-1.83l-1.39-8.35l2.01-1.9l2.12,1.9l-1.02,8.26
		c0.77,0.3,1.31,1.05,1.31,1.92C32.07,31.14,31.14,32.07,30,32.07z M42.08,43.17l-3.45-3.51l1.04-1.02l3.45,3.51L42.08,43.17z
		 M43.11,30.35l-0.01-1.45l4.92-0.03l0.01,1.45L43.11,30.35z"/>
</g>
</svg>
