<?xml version="1.0" encoding="utf-8"?>
<!-- Generator: Adobe Illustrator 25.2.1, SVG Export Plug-In . SVG Version: 6.00 Build 0)  -->
<svg version="1.1" id="Layer_1" xmlns="http://www.w3.org/2000/svg" xmlns:xlink="http://www.w3.org/1999/xlink" x="0px" y="0px"
	 viewBox="0 0 60 60" style="enable-background:new 0 0 60 60;" xml:space="preserve">
<style type="text/css">
	.st0{fill:#001E50;}
</style>
<g>
	<path class="st0" d="M42.72,22.61c-0.31-0.3-0.8-0.29-1.1,0.02l-0.26,0.27c-0.3,0.31-0.29,0.8,0.02,1.1l1.89,1.81
		c0.31,0.3,0.8,0.29,1.1-0.02l0.26-0.27c0.3-0.31,0.29-0.8-0.02-1.1L42.72,22.61z"/>
	<path class="st0" d="M38.31,18.4c-0.31-0.3-0.8-0.29-1.1,0.02l-0.26,0.27c-0.3,0.31-0.29,0.8,0.02,1.1l1.89,1.81
		c0.31,0.3,0.8,0.29,1.1-0.02l0.26-0.27c0.3-0.31,0.29-0.8-0.02-1.1L38.31,18.4z"/>
	<path class="st0" d="M33.92,14.17c-0.31-0.3-0.8-0.29-1.1,0.02l-0.26,0.27c-0.3,0.31-0.29,0.8,0.02,1.1l1.89,1.81
		c0.31,0.3,0.8,0.29,1.1-0.02l0.26-0.27c0.3-0.31,0.29-0.8-0.02-1.1L33.92,14.17z"/>
	<path class="st0" d="M30,0C13.43,0,0,13.43,0,30s13.43,30,30,30s30-13.43,30-30S46.57,0,30,0z M49,28.65
		C49,28.64,49,28.64,49,28.65l-1.89-1.82c-0.31-0.3-0.8-0.29-1.1,0.02l-0.26,0.27c-0.3,0.31-0.29,0.8,0.02,1.1L47.62,30
		c-1.52,1.5-2.67,2.63-2.67,2.63l-21.77,21.8c0,0-2.34,2.13-4.44,0c-2.1-2.13-3.11-3.06-3.11-3.06s-0.55-0.87,0.23-1.85
		c0.78-0.98,1.53-3.89-0.4-6.17c-1.93-2.28-5.33-1.41-6.11-0.69c-0.78,0.72-1.24,1.04-1.85,0.52S3.8,39.55,3.8,39.55
		s-1.44-2.16,0.03-3.63l24.58-24.35l1.66,1.6c0.31,0.3,0.8,0.29,1.1-0.02l0.26-0.27c0.3-0.31,0.29-0.8-0.02-1.1l-1.63-1.56
		l6.12-6.06c0,0,1.64-1.85,3.75,0.23c2.1,2.08,2.77,2.71,2.77,2.71s1.44,0.95,0.17,2.36c-1.27,1.41-0.91,4.51,0.75,6.17
		c1.66,1.66,4.87,1.61,6.17,0.58c1.3-1.04,1.79-0.23,1.79-0.23l3.29,3.29c0,0,1.73,1.96,0.17,3.63C53.94,23.75,51.33,26.35,49,28.65
		z"/>
</g>
</svg>
