<?xml version="1.0" encoding="UTF-8"?><svg id="Layer_1" xmlns="http://www.w3.org/2000/svg" width="255.16" height="255.04" viewBox="0 0 255.16 255.04"><defs><style>.cls-1{fill:#fff;stroke-width:0px;}</style></defs><path class="cls-1" d="M255.13,18.36c0-1.8-.34-3.63-.8-5.38C252.7,6.71,246-.02,236.12,0c-61.05.13-122.1.06-183.15.06-11.54,0-23.08-.07-34.62.02C7.82.17,0,8.12,0,18.59,0,91.24,0,163.89,0,236.54c0,.95.05,1.91.19,2.84,1.31,9.04,9.41,15.71,18.98,15.65,36.06-.2,72.11-.08,108.17-.08,22.92,0,45.85,0,68.77,0,13.61,0,27.22.07,40.83-.03,10.37-.07,18.22-8.07,18.22-18.38,0-72.73,0-145.46-.03-218.19ZM75.94,214.98c0,2.27-.81,2.84-2.91,2.83-10.9-.07-21.8-.08-32.7,0-2.24.02-3.01-.6-3-2.95.04-9.7.06-19.41.06-29.11,0-9.7,0-19.41,0-29.11,0-19.33,0-38.66,0-57.98q0-3.31,3.41-3.32c10.74,0,21.48.04,32.22-.04,2.08-.02,2.93.44,2.92,2.75-.07,38.97-.06,77.95,0,116.92ZM56.51,79c-12.27-.01-22.01-9.81-22.01-22.13,0-12.39,9.83-22.17,22.25-22.16,12.24.01,22.07,10,22.04,22.41-.02,12.16-9.94,21.89-22.29,21.88ZM214.9,217.83c-10.82-.1-21.65-.11-32.47,0-2.46.03-3.11-.84-3.1-3.19.07-20.05.14-40.1-.03-60.15-.04-4.96-.46-10.03-1.55-14.85-2.04-9.04-7.65-13.29-16.85-13.4-2.75-.03-5.6.1-8.25.77-8.82,2.2-12.6,8.88-14.07,17.12-.71,3.96-.97,8.05-.99,12.08-.1,19.49-.08,38.99,0,58.48.01,2.39-.61,3.17-3.05,3.15-10.82-.11-21.65-.11-32.47,0-2.43.02-3.09-.76-3.09-3.15.07-38.75.07-77.5,0-116.24,0-2.33.52-3.17,3.03-3.14,10.42.14,20.85.12,31.28,0,2.24-.02,2.88.71,2.82,2.86-.13,4.36-.04,8.74-.04,13.85,5.31-8.41,12.04-13.96,20.66-17.26,7.81-2.99,15.85-2.9,23.95-2.02,6.61.72,12.94,2.48,18.62,6.1,9.18,5.87,13.64,14.82,16.04,25.02,2.03,8.63,2.49,17.42,2.47,26.26-.06,21.56-.06,43.12.01,64.69,0,2.26-.6,3.04-2.93,3.02Z"/></svg>