<?xml version="1.0" encoding="utf-8"?>
<!-- Generator: Adobe Illustrator 24.1.2, SVG Export Plug-In . SVG Version: 6.00 Build 0)  -->
<svg version="1.1" id="Layer_2" xmlns="http://www.w3.org/2000/svg" xmlns:xlink="http://www.w3.org/1999/xlink" x="0px" y="0px"
	 width="1400px" height="86px" viewBox="0 0 1400 86" style="enable-background:new 0 0 1400 86;" xml:space="preserve">
<style type="text/css">
	.st0{fill:#FFF200;}
	.st1{clip-path:url(#SVGID_2_);}
</style>
<rect y="0" class="st0" width="1400" height="86"/>
<g>
	<defs>
		<rect id="SVGID_1_" y="0" width="1400" height="86"/>
	</defs>
	<clipPath id="SVGID_2_">
		<use xlink:href="#SVGID_1_"  style="overflow:visible;"/>
	</clipPath>
	<polygon class="st1" points="-6,92.2 -44.9,92.2 35.4,-9 74.4,-9 	"/>
	<polygon class="st1" points="72,92.2 33.1,92.2 113.4,-9 152.4,-9 	"/>
	<polygon class="st1" points="150,92.2 111.1,92.2 191.4,-9 230.4,-9 	"/>
	<polygon class="st1" points="228,92.2 189.1,92.2 269.4,-9 308.4,-9 	"/>
	<polygon class="st1" points="306,92.2 267.1,92.2 347.4,-9 386.4,-9 	"/>
	<polygon class="st1" points="384,92.2 345.1,92.2 425.4,-9 464.4,-9 	"/>
	<polygon class="st1" points="462,92.2 423.1,92.2 503.4,-9 542.4,-9 	"/>
	<polygon class="st1" points="540,92.2 501.1,92.2 581.4,-9 620.4,-9 	"/>
	<polygon class="st1" points="618,92.2 579.1,92.2 659.4,-9 698.4,-9 	"/>
	<polygon class="st1" points="696,92.2 657.1,92.2 737.4,-9 776.4,-9 	"/>
	<polygon class="st1" points="774,92.2 735.1,92.2 815.4,-9 854.4,-9 	"/>
	<polygon class="st1" points="852,92.2 813.1,92.2 893.4,-9 932.4,-9 	"/>
	<polygon class="st1" points="930,92.2 891.1,92.2 971.4,-9 1010.4,-9 	"/>
	<polygon class="st1" points="1008,92.2 969.1,92.2 1049.4,-9 1088.4,-9 	"/>
	<polygon class="st1" points="1086,92.2 1047.1,92.2 1127.4,-9 1166.4,-9 	"/>
	<polygon class="st1" points="1164,92.2 1125.1,92.2 1205.4,-9 1244.4,-9 	"/>
	<polygon class="st1" points="1242,92.2 1203.1,92.2 1283.4,-9 1322.4,-9 	"/>
	<polygon class="st1" points="1320,92.2 1281.1,92.2 1361.4,-9 1400.4,-9 	"/>
	<polygon class="st1" points="1394,92.2 1355.1,92.2 1435.4,-9 1474.4,-9 	"/>
</g>
</svg>
